<svg xmlns="http://www.w3.org/2000/svg" viewBox="0 0 32 32" id="student-reading"><path d="M16 12a5 5 0 1 1 5-5 5 5 0 0 1-5 5Zm0 10.68a10 10 0 0 1 6.73-5.4h.05a7 7 0 0 0-13.56 0 10 10 0 0 1 6.78 5.4ZM26.57 22a17.67 17.67 0 0 0-2.45.17c-4.27.58-7.54 2.63-8 5.16A3.42 3.42 0 0 0 16 28a3.42 3.42 0 0 0-.07-.71c-.51-2.53-3.78-4.58-8-5.16a17.67 17.67 0 0 0-2.5-.13H2v8h28v-8Zm-9.49.77a9 9 0 0 0-.78 2c1.51-1.78 4.26-3.1 7.68-3.56a18.79 18.79 0 0 1 2.59-.21H28v-3h-2.94a9.08 9.08 0 0 0-2.1.25 9.19 9.19 0 0 0-5.88 4.52ZM8 21.18c3.42.46 6.17 1.78 7.69 3.56a9.18 9.18 0 0 0-4.94-5.89 8.77 8.77 0 0 0-1.75-.6A9.08 9.08 0 0 0 6.94 18H4v3h1.43a18.54 18.54 0 0 1 2.57.18Z" data-name="1-student"></path></svg>