<svg xmlns="http://www.w3.org/2000/svg" enable-background="new 0 0 128 128" viewBox="0 0 128 128" id="lecture"><path fill="#353534" d="M114.4,11.2H76.8V6.4c0-1.9-1.5-3.4-3.4-3.4c-1.9,0-3.4,1.5-3.4,3.4v4.8H32.5c-2.4,0-4.4,1.9-4.4,4.4v0.8
			c0,2.4,2,4.3,4.4,4.3v3.8c2.2,0.6,4.3,1.7,6,3.2v-3.7h69.9v48.6H47.9l-0.4,6h63.3c2,0,3.6-1.6,3.6-3.6V20.7c2.4,0,4.3-1.9,4.3-4.3
			v-0.8C118.7,13.1,116.8,11.2,114.4,11.2z"></path><circle cx="28.8" cy="38.8" r="10.7" fill="#353534"></circle><path fill="#353534" d="M60.5,66.6L74,62.2c1.8-0.6,2.9-2.5,2.4-4.4v0c-0.5-1.9-2.5-3-4.3-2.5L58.8,58l-22-5c0,0-1.4-0.1-1.9,0.6
			c-1.9,2.3-3.9,4.5-6,6.9c-2.1-2.4-4.1-4.6-6-6.9c-0.6-0.7-1.1-0.8-1.9-0.6c-3.3,1.1-6.7,2.1-10,3.1c-1.1,0.3-1.6,1-1.6,2.1
			c0,0.1,0,0.4,0,0.4l1.6,29.5c0,0,0,0.3,0,0.5c0.3,4.1,0.5,4.5,4.4,5.7l1.9,28.3c0.2,2.4,2.1,4.3,4.5,4.3h14.1
			c2.4,0,4.4-1.9,4.5-4.3l1.5-22.7l0.1-1.7l0.3-3.9h0l2-29.2l14.4,1.6C59.3,66.8,59.9,66.8,60.5,66.6z"></path></svg>